<mxfile host="Electron" agent="Mozilla/5.0 (Windows NT 10.0; Win64; x64) AppleWebKit/537.36 (KHTML, like Gecko) draw.io/28.1.2 Chrome/138.0.7204.243 Electron/37.4.0 Safari/537.36" version="28.1.2">
  <diagram name="Page-1" id="4jNd0T2HyWcTwEk_4gqa">
    <mxGraphModel dx="464" dy="886" grid="1" gridSize="10" guides="1" tooltips="1" connect="1" arrows="1" fold="1" page="1" pageScale="1" pageWidth="850" pageHeight="1100" math="0" shadow="0">
      <root>
        <mxCell id="0" />
        <mxCell id="1" parent="0" />
        <mxCell id="DaypZLBPw6NIjkrVf2Qz-9" value="Library" style="swimlane;fontStyle=1;align=center;verticalAlign=top;childLayout=stackLayout;horizontal=1;startSize=26;horizontalStack=0;resizeParent=1;resizeParentMax=0;resizeLast=0;collapsible=1;marginBottom=0;whiteSpace=wrap;html=1;" vertex="1" parent="1">
          <mxGeometry x="30" y="90" width="160" height="86" as="geometry" />
        </mxCell>
        <mxCell id="DaypZLBPw6NIjkrVf2Qz-10" value="+ Books: Map&amp;nbsp;" style="text;strokeColor=none;fillColor=none;align=left;verticalAlign=top;spacingLeft=4;spacingRight=4;overflow=hidden;rotatable=0;points=[[0,0.5],[1,0.5]];portConstraint=eastwest;whiteSpace=wrap;html=1;" vertex="1" parent="DaypZLBPw6NIjkrVf2Qz-9">
          <mxGeometry y="26" width="160" height="26" as="geometry" />
        </mxCell>
        <mxCell id="DaypZLBPw6NIjkrVf2Qz-11" value="" style="line;strokeWidth=1;fillColor=none;align=left;verticalAlign=middle;spacingTop=-1;spacingLeft=3;spacingRight=3;rotatable=0;labelPosition=right;points=[];portConstraint=eastwest;strokeColor=inherit;" vertex="1" parent="DaypZLBPw6NIjkrVf2Qz-9">
          <mxGeometry y="52" width="160" height="8" as="geometry" />
        </mxCell>
        <mxCell id="DaypZLBPw6NIjkrVf2Qz-12" value="+ method(type): type" style="text;strokeColor=none;fillColor=none;align=left;verticalAlign=top;spacingLeft=4;spacingRight=4;overflow=hidden;rotatable=0;points=[[0,0.5],[1,0.5]];portConstraint=eastwest;whiteSpace=wrap;html=1;" vertex="1" parent="DaypZLBPw6NIjkrVf2Qz-9">
          <mxGeometry y="60" width="160" height="26" as="geometry" />
        </mxCell>
        <mxCell id="DaypZLBPw6NIjkrVf2Qz-13" value="Book" style="swimlane;fontStyle=1;align=center;verticalAlign=top;childLayout=stackLayout;horizontal=1;startSize=26;horizontalStack=0;resizeParent=1;resizeParentMax=0;resizeLast=0;collapsible=1;marginBottom=0;whiteSpace=wrap;html=1;" vertex="1" parent="1">
          <mxGeometry x="370" y="350" width="160" height="86" as="geometry" />
        </mxCell>
        <mxCell id="DaypZLBPw6NIjkrVf2Qz-14" value="+ Type: string" style="text;strokeColor=none;fillColor=none;align=left;verticalAlign=top;spacingLeft=4;spacingRight=4;overflow=hidden;rotatable=0;points=[[0,0.5],[1,0.5]];portConstraint=eastwest;whiteSpace=wrap;html=1;" vertex="1" parent="DaypZLBPw6NIjkrVf2Qz-13">
          <mxGeometry y="26" width="160" height="26" as="geometry" />
        </mxCell>
        <mxCell id="DaypZLBPw6NIjkrVf2Qz-15" value="" style="line;strokeWidth=1;fillColor=none;align=left;verticalAlign=middle;spacingTop=-1;spacingLeft=3;spacingRight=3;rotatable=0;labelPosition=right;points=[];portConstraint=eastwest;strokeColor=inherit;" vertex="1" parent="DaypZLBPw6NIjkrVf2Qz-13">
          <mxGeometry y="52" width="160" height="8" as="geometry" />
        </mxCell>
        <mxCell id="DaypZLBPw6NIjkrVf2Qz-16" value="+ method(type): type" style="text;strokeColor=none;fillColor=none;align=left;verticalAlign=top;spacingLeft=4;spacingRight=4;overflow=hidden;rotatable=0;points=[[0,0.5],[1,0.5]];portConstraint=eastwest;whiteSpace=wrap;html=1;" vertex="1" parent="DaypZLBPw6NIjkrVf2Qz-13">
          <mxGeometry y="60" width="160" height="26" as="geometry" />
        </mxCell>
        <mxCell id="DaypZLBPw6NIjkrVf2Qz-17" value="member" style="swimlane;fontStyle=1;align=center;verticalAlign=top;childLayout=stackLayout;horizontal=1;startSize=26;horizontalStack=0;resizeParent=1;resizeParentMax=0;resizeLast=0;collapsible=1;marginBottom=0;whiteSpace=wrap;html=1;" vertex="1" parent="1">
          <mxGeometry x="370" y="100" width="160" height="86" as="geometry" />
        </mxCell>
        <mxCell id="DaypZLBPw6NIjkrVf2Qz-18" value="+&amp;nbsp;" style="text;strokeColor=none;fillColor=none;align=left;verticalAlign=top;spacingLeft=4;spacingRight=4;overflow=hidden;rotatable=0;points=[[0,0.5],[1,0.5]];portConstraint=eastwest;whiteSpace=wrap;html=1;" vertex="1" parent="DaypZLBPw6NIjkrVf2Qz-17">
          <mxGeometry y="26" width="160" height="26" as="geometry" />
        </mxCell>
        <mxCell id="DaypZLBPw6NIjkrVf2Qz-19" value="" style="line;strokeWidth=1;fillColor=none;align=left;verticalAlign=middle;spacingTop=-1;spacingLeft=3;spacingRight=3;rotatable=0;labelPosition=right;points=[];portConstraint=eastwest;strokeColor=inherit;" vertex="1" parent="DaypZLBPw6NIjkrVf2Qz-17">
          <mxGeometry y="52" width="160" height="8" as="geometry" />
        </mxCell>
        <mxCell id="DaypZLBPw6NIjkrVf2Qz-20" value="+ method(type): type" style="text;strokeColor=none;fillColor=none;align=left;verticalAlign=top;spacingLeft=4;spacingRight=4;overflow=hidden;rotatable=0;points=[[0,0.5],[1,0.5]];portConstraint=eastwest;whiteSpace=wrap;html=1;" vertex="1" parent="DaypZLBPw6NIjkrVf2Qz-17">
          <mxGeometry y="60" width="160" height="26" as="geometry" />
        </mxCell>
        <mxCell id="DaypZLBPw6NIjkrVf2Qz-21" value="Loan record" style="swimlane;fontStyle=1;align=center;verticalAlign=top;childLayout=stackLayout;horizontal=1;startSize=26;horizontalStack=0;resizeParent=1;resizeParentMax=0;resizeLast=0;collapsible=1;marginBottom=0;whiteSpace=wrap;html=1;" vertex="1" parent="1">
          <mxGeometry x="560" y="209.5" width="160" height="78" as="geometry" />
        </mxCell>
        <mxCell id="DaypZLBPw6NIjkrVf2Qz-22" value="+ borrow date: string&amp;nbsp;&lt;div&gt;+ return date: string&amp;nbsp;&lt;/div&gt;" style="text;strokeColor=none;fillColor=none;align=left;verticalAlign=top;spacingLeft=4;spacingRight=4;overflow=hidden;rotatable=0;points=[[0,0.5],[1,0.5]];portConstraint=eastwest;whiteSpace=wrap;html=1;" vertex="1" parent="DaypZLBPw6NIjkrVf2Qz-21">
          <mxGeometry y="26" width="160" height="44" as="geometry" />
        </mxCell>
        <mxCell id="DaypZLBPw6NIjkrVf2Qz-23" value="" style="line;strokeWidth=1;fillColor=none;align=left;verticalAlign=middle;spacingTop=-1;spacingLeft=3;spacingRight=3;rotatable=0;labelPosition=right;points=[];portConstraint=eastwest;strokeColor=inherit;" vertex="1" parent="DaypZLBPw6NIjkrVf2Qz-21">
          <mxGeometry y="70" width="160" height="8" as="geometry" />
        </mxCell>
        <mxCell id="DaypZLBPw6NIjkrVf2Qz-24" value="+ method(type): type" style="text;strokeColor=none;fillColor=none;align=left;verticalAlign=top;spacingLeft=4;spacingRight=4;overflow=hidden;rotatable=0;points=[[0,0.5],[1,0.5]];portConstraint=eastwest;whiteSpace=wrap;html=1;" vertex="1" parent="1">
          <mxGeometry x="560" y="287.5" width="160" height="33" as="geometry" />
        </mxCell>
        <mxCell id="DaypZLBPw6NIjkrVf2Qz-28" value="1" style="endArrow=open;html=1;endSize=12;startArrow=diamondThin;startSize=14;startFill=0;edgeStyle=orthogonalEdgeStyle;align=left;verticalAlign=bottom;rounded=0;exitX=1;exitY=0.5;exitDx=0;exitDy=0;entryX=0;entryY=0.5;entryDx=0;entryDy=0;" edge="1" parent="1" source="DaypZLBPw6NIjkrVf2Qz-10" target="DaypZLBPw6NIjkrVf2Qz-14">
          <mxGeometry x="-1" y="3" relative="1" as="geometry">
            <mxPoint x="180" y="410" as="sourcePoint" />
            <mxPoint x="340" y="410" as="targetPoint" />
            <Array as="points">
              <mxPoint x="280" y="129" />
              <mxPoint x="280" y="389" />
            </Array>
          </mxGeometry>
        </mxCell>
        <mxCell id="DaypZLBPw6NIjkrVf2Qz-29" value="" style="endArrow=none;html=1;rounded=0;entryX=0.504;entryY=1.038;entryDx=0;entryDy=0;entryPerimeter=0;exitX=0.5;exitY=0;exitDx=0;exitDy=0;" edge="1" parent="1" source="DaypZLBPw6NIjkrVf2Qz-30" target="DaypZLBPw6NIjkrVf2Qz-20">
          <mxGeometry width="50" height="50" relative="1" as="geometry">
            <mxPoint x="220" y="480" as="sourcePoint" />
            <mxPoint x="400" y="210" as="targetPoint" />
          </mxGeometry>
        </mxCell>
        <mxCell id="DaypZLBPw6NIjkrVf2Qz-31" value="" style="endArrow=none;html=1;rounded=0;entryX=0.504;entryY=1.038;entryDx=0;entryDy=0;entryPerimeter=0;exitX=0.5;exitY=0;exitDx=0;exitDy=0;" edge="1" parent="1" source="DaypZLBPw6NIjkrVf2Qz-13" target="DaypZLBPw6NIjkrVf2Qz-30">
          <mxGeometry width="50" height="50" relative="1" as="geometry">
            <mxPoint x="450" y="350" as="sourcePoint" />
            <mxPoint x="451" y="187" as="targetPoint" />
          </mxGeometry>
        </mxCell>
        <mxCell id="DaypZLBPw6NIjkrVf2Qz-30" value="borrows" style="text;html=1;align=center;verticalAlign=middle;whiteSpace=wrap;rounded=0;" vertex="1" parent="1">
          <mxGeometry x="425" y="250" width="60" height="30" as="geometry" />
        </mxCell>
        <mxCell id="DaypZLBPw6NIjkrVf2Qz-33" value="" style="endArrow=none;dashed=1;html=1;rounded=0;entryX=0;entryY=0.5;entryDx=0;entryDy=0;exitX=1;exitY=0.75;exitDx=0;exitDy=0;" edge="1" parent="1" source="DaypZLBPw6NIjkrVf2Qz-30" target="DaypZLBPw6NIjkrVf2Qz-22">
          <mxGeometry width="50" height="50" relative="1" as="geometry">
            <mxPoint x="520" y="480" as="sourcePoint" />
            <mxPoint x="570" y="430" as="targetPoint" />
          </mxGeometry>
        </mxCell>
        <mxCell id="DaypZLBPw6NIjkrVf2Qz-34" value="Laptop" style="swimlane;fontStyle=1;align=center;verticalAlign=top;childLayout=stackLayout;horizontal=1;startSize=26;horizontalStack=0;resizeParent=1;resizeParentMax=0;resizeLast=0;collapsible=1;marginBottom=0;whiteSpace=wrap;html=1;" vertex="1" parent="1">
          <mxGeometry x="320" y="730" width="160" height="148" as="geometry" />
        </mxCell>
        <mxCell id="DaypZLBPw6NIjkrVf2Qz-35" value="&lt;br&gt;&lt;div&gt;+ purchase price&lt;/div&gt;" style="text;strokeColor=none;fillColor=none;align=left;verticalAlign=top;spacingLeft=4;spacingRight=4;overflow=hidden;rotatable=0;points=[[0,0.5],[1,0.5]];portConstraint=eastwest;whiteSpace=wrap;html=1;" vertex="1" parent="DaypZLBPw6NIjkrVf2Qz-34">
          <mxGeometry y="26" width="160" height="54" as="geometry" />
        </mxCell>
        <mxCell id="DaypZLBPw6NIjkrVf2Qz-36" value="" style="line;strokeWidth=1;fillColor=none;align=left;verticalAlign=middle;spacingTop=-1;spacingLeft=3;spacingRight=3;rotatable=0;labelPosition=right;points=[];portConstraint=eastwest;strokeColor=inherit;" vertex="1" parent="DaypZLBPw6NIjkrVf2Qz-34">
          <mxGeometry y="80" width="160" height="68" as="geometry" />
        </mxCell>
        <mxCell id="DaypZLBPw6NIjkrVf2Qz-37" value="+ method(type): type" style="text;strokeColor=none;fillColor=none;align=left;verticalAlign=top;spacingLeft=4;spacingRight=4;overflow=hidden;rotatable=0;points=[[0,0.5],[1,0.5]];portConstraint=eastwest;whiteSpace=wrap;html=1;" vertex="1" parent="1">
          <mxGeometry x="320" y="816" width="160" height="26" as="geometry" />
        </mxCell>
        <mxCell id="DaypZLBPw6NIjkrVf2Qz-38" value="Owner" style="swimlane;fontStyle=1;align=center;verticalAlign=top;childLayout=stackLayout;horizontal=1;startSize=26;horizontalStack=0;resizeParent=1;resizeParentMax=0;resizeLast=0;collapsible=1;marginBottom=0;whiteSpace=wrap;html=1;" vertex="1" parent="1">
          <mxGeometry x="200" y="520" width="160" height="148" as="geometry" />
        </mxCell>
        <mxCell id="DaypZLBPw6NIjkrVf2Qz-39" value="+ name: String" style="text;strokeColor=none;fillColor=none;align=left;verticalAlign=top;spacingLeft=4;spacingRight=4;overflow=hidden;rotatable=0;points=[[0,0.5],[1,0.5]];portConstraint=eastwest;whiteSpace=wrap;html=1;" vertex="1" parent="DaypZLBPw6NIjkrVf2Qz-38">
          <mxGeometry y="26" width="160" height="54" as="geometry" />
        </mxCell>
        <mxCell id="DaypZLBPw6NIjkrVf2Qz-40" value="" style="line;strokeWidth=1;fillColor=none;align=left;verticalAlign=middle;spacingTop=-1;spacingLeft=3;spacingRight=3;rotatable=0;labelPosition=right;points=[];portConstraint=eastwest;strokeColor=inherit;" vertex="1" parent="DaypZLBPw6NIjkrVf2Qz-38">
          <mxGeometry y="80" width="160" height="68" as="geometry" />
        </mxCell>
        <mxCell id="DaypZLBPw6NIjkrVf2Qz-41" value="+ method(type): type" style="text;strokeColor=none;fillColor=none;align=left;verticalAlign=top;spacingLeft=4;spacingRight=4;overflow=hidden;rotatable=0;points=[[0,0.5],[1,0.5]];portConstraint=eastwest;whiteSpace=wrap;html=1;" vertex="1" parent="1">
          <mxGeometry x="200" y="606" width="160" height="26" as="geometry" />
        </mxCell>
        <mxCell id="DaypZLBPw6NIjkrVf2Qz-42" value="" style="endArrow=none;html=1;rounded=0;entryX=0.5;entryY=1;entryDx=0;entryDy=0;exitX=0.5;exitY=0;exitDx=0;exitDy=0;" edge="1" parent="1" source="DaypZLBPw6NIjkrVf2Qz-43" target="DaypZLBPw6NIjkrVf2Qz-38">
          <mxGeometry width="50" height="50" relative="1" as="geometry">
            <mxPoint x="370" y="840" as="sourcePoint" />
            <mxPoint x="420" y="790" as="targetPoint" />
          </mxGeometry>
        </mxCell>
        <mxCell id="DaypZLBPw6NIjkrVf2Qz-44" value="" style="endArrow=none;html=1;rounded=0;entryX=0.5;entryY=1;entryDx=0;entryDy=0;exitX=0.5;exitY=0;exitDx=0;exitDy=0;" edge="1" parent="1" source="DaypZLBPw6NIjkrVf2Qz-34" target="DaypZLBPw6NIjkrVf2Qz-43">
          <mxGeometry width="50" height="50" relative="1" as="geometry">
            <mxPoint x="400" y="730" as="sourcePoint" />
            <mxPoint x="280" y="668" as="targetPoint" />
          </mxGeometry>
        </mxCell>
        <mxCell id="DaypZLBPw6NIjkrVf2Qz-43" value="Owns" style="text;align=center;fontStyle=1;verticalAlign=middle;spacingLeft=3;spacingRight=3;strokeColor=none;rotatable=0;points=[[0,0.5],[1,0.5]];portConstraint=eastwest;html=1;" vertex="1" parent="1">
          <mxGeometry x="300" y="690" width="80" height="26" as="geometry" />
        </mxCell>
        <mxCell id="DaypZLBPw6NIjkrVf2Qz-45" value="Keyboard" style="swimlane;fontStyle=1;align=center;verticalAlign=top;childLayout=stackLayout;horizontal=1;startSize=26;horizontalStack=0;resizeParent=1;resizeParentMax=0;resizeLast=0;collapsible=1;marginBottom=0;whiteSpace=wrap;html=1;" vertex="1" parent="1">
          <mxGeometry x="460" y="510" width="160" height="148" as="geometry" />
        </mxCell>
        <mxCell id="DaypZLBPw6NIjkrVf2Qz-46" value="&lt;div&gt;&lt;br&gt;&lt;/div&gt;&lt;div&gt;+ keys: Array&lt;/div&gt;" style="text;strokeColor=none;fillColor=none;align=left;verticalAlign=top;spacingLeft=4;spacingRight=4;overflow=hidden;rotatable=0;points=[[0,0.5],[1,0.5]];portConstraint=eastwest;whiteSpace=wrap;html=1;" vertex="1" parent="DaypZLBPw6NIjkrVf2Qz-45">
          <mxGeometry y="26" width="160" height="54" as="geometry" />
        </mxCell>
        <mxCell id="DaypZLBPw6NIjkrVf2Qz-47" value="" style="line;strokeWidth=1;fillColor=none;align=left;verticalAlign=middle;spacingTop=-1;spacingLeft=3;spacingRight=3;rotatable=0;labelPosition=right;points=[];portConstraint=eastwest;strokeColor=inherit;" vertex="1" parent="DaypZLBPw6NIjkrVf2Qz-45">
          <mxGeometry y="80" width="160" height="68" as="geometry" />
        </mxCell>
        <mxCell id="DaypZLBPw6NIjkrVf2Qz-51" value="1" style="endArrow=open;html=1;endSize=12;startArrow=diamondThin;startSize=14;startFill=1;edgeStyle=orthogonalEdgeStyle;align=left;verticalAlign=bottom;rounded=0;entryX=0;entryY=0.5;entryDx=0;entryDy=0;exitX=0.75;exitY=0;exitDx=0;exitDy=0;" edge="1" parent="1" source="DaypZLBPw6NIjkrVf2Qz-34" target="DaypZLBPw6NIjkrVf2Qz-46">
          <mxGeometry x="-1" y="3" relative="1" as="geometry">
            <mxPoint x="330" y="820" as="sourcePoint" />
            <mxPoint x="490" y="820" as="targetPoint" />
          </mxGeometry>
        </mxCell>
        <mxCell id="DaypZLBPw6NIjkrVf2Qz-52" value="Ingredient" style="swimlane;fontStyle=1;align=center;verticalAlign=top;childLayout=stackLayout;horizontal=1;startSize=26;horizontalStack=0;resizeParent=1;resizeParentMax=0;resizeLast=0;collapsible=1;marginBottom=0;whiteSpace=wrap;html=1;" vertex="1" parent="1">
          <mxGeometry x="1030" y="130" width="160" height="98" as="geometry" />
        </mxCell>
        <mxCell id="DaypZLBPw6NIjkrVf2Qz-53" value="+ name: String&amp;nbsp;&lt;div&gt;+ measurement_unit: string&lt;/div&gt;&lt;div&gt;+ quantity: integer&lt;br&gt;&lt;div&gt;&lt;br&gt;&lt;/div&gt;&lt;/div&gt;" style="text;strokeColor=none;fillColor=none;align=left;verticalAlign=top;spacingLeft=4;spacingRight=4;overflow=hidden;rotatable=0;points=[[0,0.5],[1,0.5]];portConstraint=eastwest;whiteSpace=wrap;html=1;" vertex="1" parent="DaypZLBPw6NIjkrVf2Qz-52">
          <mxGeometry y="26" width="160" height="64" as="geometry" />
        </mxCell>
        <mxCell id="DaypZLBPw6NIjkrVf2Qz-54" value="" style="line;strokeWidth=1;fillColor=none;align=left;verticalAlign=middle;spacingTop=-1;spacingLeft=3;spacingRight=3;rotatable=0;labelPosition=right;points=[];portConstraint=eastwest;strokeColor=inherit;" vertex="1" parent="DaypZLBPw6NIjkrVf2Qz-52">
          <mxGeometry y="90" width="160" height="8" as="geometry" />
        </mxCell>
        <mxCell id="DaypZLBPw6NIjkrVf2Qz-56" value="Exercise 1:&amp;nbsp;" style="text;align=center;fontStyle=1;verticalAlign=middle;spacingLeft=3;spacingRight=3;strokeColor=none;rotatable=0;points=[[0,0.5],[1,0.5]];portConstraint=eastwest;html=1;" vertex="1" parent="1">
          <mxGeometry x="260" width="250" height="56" as="geometry" />
        </mxCell>
        <mxCell id="DaypZLBPw6NIjkrVf2Qz-57" value="Exercise 2:&amp;nbsp;" style="text;align=center;fontStyle=1;verticalAlign=middle;spacingLeft=3;spacingRight=3;strokeColor=none;rotatable=0;points=[[0,0.5],[1,0.5]];portConstraint=eastwest;html=1;" vertex="1" parent="1">
          <mxGeometry x="1140" width="250" height="56" as="geometry" />
        </mxCell>
        <mxCell id="DaypZLBPw6NIjkrVf2Qz-58" value="Keys" style="swimlane;fontStyle=1;align=center;verticalAlign=top;childLayout=stackLayout;horizontal=1;startSize=26;horizontalStack=0;resizeParent=1;resizeParentMax=0;resizeLast=0;collapsible=1;marginBottom=0;whiteSpace=wrap;html=1;" vertex="1" parent="1">
          <mxGeometry x="510" y="710" width="160" height="148" as="geometry" />
        </mxCell>
        <mxCell id="DaypZLBPw6NIjkrVf2Qz-59" value="&lt;div&gt;&lt;br&gt;&lt;/div&gt;&lt;div&gt;+ keys: Array&lt;/div&gt;" style="text;strokeColor=none;fillColor=none;align=left;verticalAlign=top;spacingLeft=4;spacingRight=4;overflow=hidden;rotatable=0;points=[[0,0.5],[1,0.5]];portConstraint=eastwest;whiteSpace=wrap;html=1;" vertex="1" parent="DaypZLBPw6NIjkrVf2Qz-58">
          <mxGeometry y="26" width="160" height="54" as="geometry" />
        </mxCell>
        <mxCell id="DaypZLBPw6NIjkrVf2Qz-60" value="" style="line;strokeWidth=1;fillColor=none;align=left;verticalAlign=middle;spacingTop=-1;spacingLeft=3;spacingRight=3;rotatable=0;labelPosition=right;points=[];portConstraint=eastwest;strokeColor=inherit;" vertex="1" parent="DaypZLBPw6NIjkrVf2Qz-58">
          <mxGeometry y="80" width="160" height="68" as="geometry" />
        </mxCell>
        <mxCell id="DaypZLBPw6NIjkrVf2Qz-61" value="1" style="endArrow=open;html=1;endSize=12;startArrow=diamondThin;startSize=14;startFill=1;edgeStyle=orthogonalEdgeStyle;align=left;verticalAlign=bottom;rounded=0;entryX=0.5;entryY=1;entryDx=0;entryDy=0;exitX=0.5;exitY=0;exitDx=0;exitDy=0;" edge="1" parent="1" source="DaypZLBPw6NIjkrVf2Qz-58" target="DaypZLBPw6NIjkrVf2Qz-45">
          <mxGeometry x="-1" y="3" relative="1" as="geometry">
            <mxPoint x="510" y="827" as="sourcePoint" />
            <mxPoint x="530" y="660" as="targetPoint" />
          </mxGeometry>
        </mxCell>
        <mxCell id="DaypZLBPw6NIjkrVf2Qz-55" value="+ method(type): type" style="text;strokeColor=none;fillColor=none;align=left;verticalAlign=top;spacingLeft=4;spacingRight=4;overflow=hidden;rotatable=0;points=[[0,0.5],[1,0.5]];portConstraint=eastwest;whiteSpace=wrap;html=1;" vertex="1" parent="1">
          <mxGeometry x="1030" y="220" width="160" height="50" as="geometry" />
        </mxCell>
        <mxCell id="DaypZLBPw6NIjkrVf2Qz-62" value="Dish" style="swimlane;fontStyle=1;align=center;verticalAlign=top;childLayout=stackLayout;horizontal=1;startSize=26;horizontalStack=0;resizeParent=1;resizeParentMax=0;resizeLast=0;collapsible=1;marginBottom=0;whiteSpace=wrap;html=1;" vertex="1" parent="1">
          <mxGeometry x="1030" y="350" width="160" height="188" as="geometry" />
        </mxCell>
        <mxCell id="DaypZLBPw6NIjkrVf2Qz-63" value="&lt;div&gt;&lt;div&gt;+ name: string&lt;/div&gt;&lt;/div&gt;&lt;div&gt;+ ID: string&amp;nbsp;&lt;/div&gt;" style="text;strokeColor=none;fillColor=none;align=left;verticalAlign=top;spacingLeft=4;spacingRight=4;overflow=hidden;rotatable=0;points=[[0,0.5],[1,0.5]];portConstraint=eastwest;whiteSpace=wrap;html=1;" vertex="1" parent="DaypZLBPw6NIjkrVf2Qz-62">
          <mxGeometry y="26" width="160" height="64" as="geometry" />
        </mxCell>
        <mxCell id="DaypZLBPw6NIjkrVf2Qz-64" value="" style="line;strokeWidth=1;fillColor=none;align=left;verticalAlign=middle;spacingTop=-1;spacingLeft=3;spacingRight=3;rotatable=0;labelPosition=right;points=[];portConstraint=eastwest;strokeColor=inherit;" vertex="1" parent="DaypZLBPw6NIjkrVf2Qz-62">
          <mxGeometry y="90" width="160" height="48" as="geometry" />
        </mxCell>
        <mxCell id="DaypZLBPw6NIjkrVf2Qz-65" value="+ method(type): type" style="text;strokeColor=none;fillColor=none;align=left;verticalAlign=top;spacingLeft=4;spacingRight=4;overflow=hidden;rotatable=0;points=[[0,0.5],[1,0.5]];portConstraint=eastwest;whiteSpace=wrap;html=1;" vertex="1" parent="DaypZLBPw6NIjkrVf2Qz-62">
          <mxGeometry y="138" width="160" height="50" as="geometry" />
        </mxCell>
        <mxCell id="DaypZLBPw6NIjkrVf2Qz-66" value="1" style="endArrow=open;html=1;endSize=12;startArrow=diamondThin;startSize=14;startFill=1;edgeStyle=orthogonalEdgeStyle;align=left;verticalAlign=bottom;rounded=0;entryX=0;entryY=0.5;entryDx=0;entryDy=0;exitX=0.5;exitY=0;exitDx=0;exitDy=0;" edge="1" parent="1" source="DaypZLBPw6NIjkrVf2Qz-62" target="DaypZLBPw6NIjkrVf2Qz-53">
          <mxGeometry x="-1" y="3" relative="1" as="geometry">
            <mxPoint x="1000" y="360" as="sourcePoint" />
            <mxPoint x="1160" y="360" as="targetPoint" />
          </mxGeometry>
        </mxCell>
        <mxCell id="DaypZLBPw6NIjkrVf2Qz-67" value="*" style="text;html=1;align=center;verticalAlign=middle;whiteSpace=wrap;rounded=0;" vertex="1" parent="1">
          <mxGeometry x="1090" y="320" width="60" height="30" as="geometry" />
        </mxCell>
        <mxCell id="DaypZLBPw6NIjkrVf2Qz-68" value="*" style="text;html=1;align=center;verticalAlign=middle;whiteSpace=wrap;rounded=0;" vertex="1" parent="1">
          <mxGeometry x="980" y="176" width="30" height="30" as="geometry" />
        </mxCell>
        <mxCell id="DaypZLBPw6NIjkrVf2Qz-71" value="Table" style="swimlane;fontStyle=1;align=center;verticalAlign=top;childLayout=stackLayout;horizontal=1;startSize=26;horizontalStack=0;resizeParent=1;resizeParentMax=0;resizeLast=0;collapsible=1;marginBottom=0;whiteSpace=wrap;html=1;" vertex="1" parent="1">
          <mxGeometry x="770" y="620" width="160" height="188" as="geometry" />
        </mxCell>
        <mxCell id="DaypZLBPw6NIjkrVf2Qz-72" value="&lt;div&gt;&lt;div&gt;&lt;span style=&quot;background-color: transparent; color: light-dark(rgb(0, 0, 0), rgb(255, 255, 255));&quot;&gt;+ ID: string&lt;/span&gt;&lt;/div&gt;&lt;div&gt;&lt;span style=&quot;background-color: transparent; color: light-dark(rgb(0, 0, 0), rgb(255, 255, 255));&quot;&gt;+ capacity: ineteger&lt;/span&gt;&lt;/div&gt;&lt;/div&gt;" style="text;strokeColor=none;fillColor=none;align=left;verticalAlign=top;spacingLeft=4;spacingRight=4;overflow=hidden;rotatable=0;points=[[0,0.5],[1,0.5]];portConstraint=eastwest;whiteSpace=wrap;html=1;" vertex="1" parent="DaypZLBPw6NIjkrVf2Qz-71">
          <mxGeometry y="26" width="160" height="64" as="geometry" />
        </mxCell>
        <mxCell id="DaypZLBPw6NIjkrVf2Qz-73" value="" style="line;strokeWidth=1;fillColor=none;align=left;verticalAlign=middle;spacingTop=-1;spacingLeft=3;spacingRight=3;rotatable=0;labelPosition=right;points=[];portConstraint=eastwest;strokeColor=inherit;" vertex="1" parent="DaypZLBPw6NIjkrVf2Qz-71">
          <mxGeometry y="90" width="160" height="48" as="geometry" />
        </mxCell>
        <mxCell id="DaypZLBPw6NIjkrVf2Qz-74" value="+ method(type): type" style="text;strokeColor=none;fillColor=none;align=left;verticalAlign=top;spacingLeft=4;spacingRight=4;overflow=hidden;rotatable=0;points=[[0,0.5],[1,0.5]];portConstraint=eastwest;whiteSpace=wrap;html=1;" vertex="1" parent="DaypZLBPw6NIjkrVf2Qz-71">
          <mxGeometry y="138" width="160" height="50" as="geometry" />
        </mxCell>
        <mxCell id="DaypZLBPw6NIjkrVf2Qz-79" value="Meal" style="swimlane;fontStyle=1;align=center;verticalAlign=top;childLayout=stackLayout;horizontal=1;startSize=26;horizontalStack=0;resizeParent=1;resizeParentMax=0;resizeLast=0;collapsible=1;marginBottom=0;whiteSpace=wrap;html=1;" vertex="1" parent="1">
          <mxGeometry x="800" y="180" width="160" height="138" as="geometry" />
        </mxCell>
        <mxCell id="DaypZLBPw6NIjkrVf2Qz-80" value="&lt;div&gt;&lt;br&gt;&lt;/div&gt;" style="text;strokeColor=none;fillColor=none;align=left;verticalAlign=top;spacingLeft=4;spacingRight=4;overflow=hidden;rotatable=0;points=[[0,0.5],[1,0.5]];portConstraint=eastwest;whiteSpace=wrap;html=1;" vertex="1" parent="DaypZLBPw6NIjkrVf2Qz-79">
          <mxGeometry y="26" width="160" height="64" as="geometry" />
        </mxCell>
        <mxCell id="DaypZLBPw6NIjkrVf2Qz-81" value="" style="line;strokeWidth=1;fillColor=none;align=left;verticalAlign=middle;spacingTop=-1;spacingLeft=3;spacingRight=3;rotatable=0;labelPosition=right;points=[];portConstraint=eastwest;strokeColor=inherit;" vertex="1" parent="DaypZLBPw6NIjkrVf2Qz-79">
          <mxGeometry y="90" width="160" height="48" as="geometry" />
        </mxCell>
        <mxCell id="DaypZLBPw6NIjkrVf2Qz-83" value="" style="endArrow=none;html=1;rounded=0;exitX=0.5;exitY=1;exitDx=0;exitDy=0;entryX=0;entryY=0.5;entryDx=0;entryDy=0;" edge="1" parent="1" source="DaypZLBPw6NIjkrVf2Qz-85" target="DaypZLBPw6NIjkrVf2Qz-63">
          <mxGeometry width="50" height="50" relative="1" as="geometry">
            <mxPoint x="990" y="380" as="sourcePoint" />
            <mxPoint x="1040" y="330" as="targetPoint" />
          </mxGeometry>
        </mxCell>
        <mxCell id="DaypZLBPw6NIjkrVf2Qz-84" value="" style="endArrow=none;html=1;rounded=0;exitX=0.5;exitY=0;exitDx=0;exitDy=0;entryX=0.25;entryY=1;entryDx=0;entryDy=0;" edge="1" parent="1" source="DaypZLBPw6NIjkrVf2Qz-71" target="DaypZLBPw6NIjkrVf2Qz-79">
          <mxGeometry width="50" height="50" relative="1" as="geometry">
            <mxPoint x="890" y="328" as="sourcePoint" />
            <mxPoint x="1040" y="418" as="targetPoint" />
          </mxGeometry>
        </mxCell>
        <mxCell id="DaypZLBPw6NIjkrVf2Qz-86" value="" style="endArrow=none;html=1;rounded=0;exitX=0.5;exitY=1;exitDx=0;exitDy=0;entryX=0;entryY=0.5;entryDx=0;entryDy=0;" edge="1" parent="1" source="DaypZLBPw6NIjkrVf2Qz-79" target="DaypZLBPw6NIjkrVf2Qz-85">
          <mxGeometry width="50" height="50" relative="1" as="geometry">
            <mxPoint x="880" y="318" as="sourcePoint" />
            <mxPoint x="1030" y="408" as="targetPoint" />
          </mxGeometry>
        </mxCell>
        <mxCell id="DaypZLBPw6NIjkrVf2Qz-85" value="*" style="text;html=1;align=center;verticalAlign=middle;whiteSpace=wrap;rounded=0;" vertex="1" parent="1">
          <mxGeometry x="910" y="320.5" width="60" height="30" as="geometry" />
        </mxCell>
        <mxCell id="DaypZLBPw6NIjkrVf2Qz-87" value="*" style="text;html=1;align=center;verticalAlign=middle;whiteSpace=wrap;rounded=0;" vertex="1" parent="1">
          <mxGeometry x="980" y="360" width="60" height="30" as="geometry" />
        </mxCell>
        <mxCell id="DaypZLBPw6NIjkrVf2Qz-90" value="waiter" style="swimlane;fontStyle=1;align=center;verticalAlign=top;childLayout=stackLayout;horizontal=1;startSize=26;horizontalStack=0;resizeParent=1;resizeParentMax=0;resizeLast=0;collapsible=1;marginBottom=0;whiteSpace=wrap;html=1;" vertex="1" parent="1">
          <mxGeometry x="990" y="578" width="160" height="138" as="geometry" />
        </mxCell>
        <mxCell id="DaypZLBPw6NIjkrVf2Qz-91" value="+ ID: string&amp;nbsp;&lt;div&gt;+ name: string&amp;nbsp;&lt;/div&gt;&lt;div&gt;+ address: strring&amp;nbsp;&lt;/div&gt;&lt;div&gt;+ phone_num: integer&lt;/div&gt;" style="text;strokeColor=none;fillColor=none;align=left;verticalAlign=top;spacingLeft=4;spacingRight=4;overflow=hidden;rotatable=0;points=[[0,0.5],[1,0.5]];portConstraint=eastwest;whiteSpace=wrap;html=1;" vertex="1" parent="DaypZLBPw6NIjkrVf2Qz-90">
          <mxGeometry y="26" width="160" height="64" as="geometry" />
        </mxCell>
        <mxCell id="DaypZLBPw6NIjkrVf2Qz-92" value="" style="line;strokeWidth=1;fillColor=none;align=left;verticalAlign=middle;spacingTop=-1;spacingLeft=3;spacingRight=3;rotatable=0;labelPosition=right;points=[];portConstraint=eastwest;strokeColor=inherit;" vertex="1" parent="DaypZLBPw6NIjkrVf2Qz-90">
          <mxGeometry y="90" width="160" height="48" as="geometry" />
        </mxCell>
        <mxCell id="DaypZLBPw6NIjkrVf2Qz-93" value="" style="endArrow=none;dashed=1;html=1;rounded=0;entryX=0.022;entryY=0.086;entryDx=0;entryDy=0;entryPerimeter=0;" edge="1" parent="1" target="DaypZLBPw6NIjkrVf2Qz-91">
          <mxGeometry width="50" height="50" relative="1" as="geometry">
            <mxPoint x="850" y="480" as="sourcePoint" />
            <mxPoint x="1040" y="330" as="targetPoint" />
          </mxGeometry>
        </mxCell>
      </root>
    </mxGraphModel>
  </diagram>
</mxfile>
